HIERARCHY
ROOT Hips
{
	OFFSET 0.00000 0.00000 0.00000
	CHANNELS 6 Xposition Yposition Zposition Zrotation Yrotation Xrotation 
	JOINT LHipJoint
	{
		OFFSET 0 0 0
		CHANNELS 3 Zrotation Yrotation Xrotation
		JOINT LeftUpLeg
		{
			OFFSET 1.58161 -1.81893 0.78828
			CHANNELS 3 Zrotation Yrotation Xrotation
			JOINT LeftLeg
			{
				OFFSET 2.53374 -6.96141 0.00000
				CHANNELS 3 Zrotation Yrotation Xrotation
				JOINT LeftFoot
				{
					OFFSET 2.63509 -7.23986 0.00000
					CHANNELS 3 Zrotation Yrotation Xrotation
					JOINT LeftToeBase
					{
						OFFSET 0.14115 -0.38781 2.05350
						CHANNELS 3 Zrotation Yrotation Xrotation
						End Site
						{
							OFFSET 0.00000 -0.00000 1.05543
						}
					}
				}
			}
		}
	}
	JOINT RHipJoint
	{
		OFFSET 0 0 0
		CHANNELS 3 Zrotation Yrotation Xrotation
		JOINT RightUpLeg
		{
			OFFSET -1.11138 -1.81893 0.78828
			CHANNELS 3 Zrotation Yrotation Xrotation
			JOINT RightLeg
			{
				OFFSET -2.58392 -7.09926 0.00000
				CHANNELS 3 Zrotation Yrotation Xrotation
				JOINT RightFoot
				{
					OFFSET -2.66423 -7.31992 0.00000
					CHANNELS 3 Zrotation Yrotation Xrotation
					JOINT RightToeBase
					{
						OFFSET -0.18831 -0.51739 2.12114
						CHANNELS 3 Zrotation Yrotation Xrotation
						End Site
						{
							OFFSET -0.00000 -0.00000 1.09845
						}
					}
				}
			}
		}
	}
	JOINT LowerBack
	{
		OFFSET 0 0 0
		CHANNELS 3 Zrotation Yrotation Xrotation
		JOINT Spine
		{
			OFFSET -0.01511 1.97958 -0.08829
			CHANNELS 3 Zrotation Yrotation Xrotation
			JOINT Spine1
			{
				OFFSET 0.08344 1.97334 -0.04330
				CHANNELS 3 Zrotation Yrotation Xrotation
				JOINT Neck
				{
					OFFSET 0 0 0
					CHANNELS 3 Zrotation Yrotation Xrotation
					JOINT Neck1
					{
						OFFSET 0.00559 1.76246 0.31246
						CHANNELS 3 Zrotation Yrotation Xrotation
						JOINT Head
						{
							OFFSET -0.07011 1.80354 -0.30524
							CHANNELS 3 Zrotation Yrotation Xrotation
							End Site
							{
								OFFSET -0.02385 1.83547 -0.13906
							}
						}
					}
				}
				JOINT LeftShoulder
				{
					OFFSET 0 0 0
					CHANNELS 3 Zrotation Yrotation Xrotation
					JOINT LeftArm
					{
						OFFSET 3.20667 1.30156 -0.60240
						CHANNELS 3 Zrotation Yrotation Xrotation
						JOINT LeftForeArm
						{
							OFFSET 4.95663 -0.00000 0.00000
							CHANNELS 3 Zrotation Yrotation Xrotation
							JOINT LeftHand
							{
								OFFSET 3.38177 -0.00000 0.00000
								CHANNELS 3 Zrotation Yrotation Xrotation
								JOINT LeftFingerBase
								{
									OFFSET 0 0 0
									CHANNELS 3 Zrotation Yrotation Xrotation
									JOINT LeftHandIndex1
									{
										OFFSET 0.66291 -0.00000 0.00000
										CHANNELS 3 Zrotation Yrotation Xrotation
										End Site
										{
											OFFSET 0.53445 -0.00000 0.00000
										}
									}
								}
								JOINT LThumb
								{
									OFFSET 0 0 0
									CHANNELS 3 Zrotation Yrotation Xrotation
									End Site
									{
										OFFSET 0.54261 -0.00000 0.54261
									}
								}
							}
						}
					}
				}
				JOINT RightShoulder
				{
					OFFSET 0 0 0
					CHANNELS 3 Zrotation Yrotation Xrotation
					JOINT RightArm
					{
						OFFSET -3.06877 1.34672 -0.60964
						CHANNELS 3 Zrotation Yrotation Xrotation
						JOINT RightForeArm
						{
							OFFSET -5.08365 -0.00000 0.00000
							CHANNELS 3 Zrotation Yrotation Xrotation
							JOINT RightHand
							{
								OFFSET -3.35984 -0.00000 0.00000
								CHANNELS 3 Zrotation Yrotation Xrotation
								JOINT RightFingerBase
								{
									OFFSET 0 0 0
									CHANNELS 3 Zrotation Yrotation Xrotation
									JOINT RightHandIndex1
									{
										OFFSET -0.82076 -0.00000 0.00000
										CHANNELS 3 Zrotation Yrotation Xrotation
										End Site
										{
											OFFSET -0.66172 -0.00000 0.00000
										}
									}
								}
								JOINT RThumb
								{
									OFFSET 0 0 0
									CHANNELS 3 Zrotation Yrotation Xrotation
									End Site
									{
										OFFSET -0.67182 -0.00000 0.67182
									}
								}
							}
						}
					}
				}
			}
		}
	}
}
MOTION
Frames: 8
Frame Time: .0083333
-8.8444 17.8612 5.7395 0 0 0 0 0 0 -21 0 0 0 0 0 0 0 0 0 0 0 0 0 0 21 0 0 0 0 0 0 0 0 0 0 0 0 0 0 0 0 0 0 0 0 0 0 -16 0 0 21 0 0 11 0 0 0 -8 0 0 0 0 0 0 0 0 0 0 0 0 0 0 0 0 0 0 0 0 8 0 0 0 0 0 0 0 0 0 0 0 0 0 0 0 0 0
-8.8444 17.8612 5.7395 -39.4713 83.9430 -25.8643 0.0000 0.0000 0.0000 -7.1797 -4.5151 -27.1329 2.4250 9.7003 28.0115 0.3363 -7.0756 -10.7354 0.7042 -5.3635 -14.9482 0.0000 0.0000 0.0000 13.1232 8.9587 -27.9277 -2.4690 -9.7813 28.2714 -0.2660 0.0954 -9.7086 -0.0601 1.5821 -4.3522 0.2667 1.0594 5.5111 4.3773 1.5631 5.6498 4.3362 0.7941 2.6321 4.6311 2.8727 -10.8631 -3.6000 7.6795 43.9498 -0.9151 4.1011 18.8913 -0.0000 0.0000 0.0000 -93.2963 -18.1820 81.6001 34.9178 -44.7533 -14.7554 -0.0000 0.0000 -66.7463 29.6164 63.3164 26.9268 -7.1250 0.0000 -0.0000 170.5989 6.6411 8.3670 -0.0000 0.0000 0.0000 84.7587 15.3835 73.8861 -37.3202 46.3996 -16.4715 0.0000 -0.0000 -65.8837 -41.7584 -13.8857 12.0933 7.1250 -0.0000 -0.0000 -13.9530 -47.8138 0.9868
-8.8439 17.8635 5.7364 -39.3661 83.8463 -25.7696 0.0000 0.0000 0.0000 -7.1503 -4.4531 -27.0989 2.4206 9.6920 27.9850 0.3366 -7.0340 -10.7294 0.6992 -5.3448 -14.8946 0.0000 0.0000 0.0000 13.1397 9.0619 -27.8402 -2.4547 -9.7551 28.1873 -0.2653 0.1472 -9.6780 -0.0258 1.0367 -2.8498 0.5214 1.2758 5.5218 4.1697 1.8575 5.6018 3.9626 0.9524 2.5671 4.9802 2.5776 -10.8953 -3.6729 7.1469 43.9527 -1.1117 3.9445 18.8843 0.0000 0.0000 0.0000 -92.9471 -18.1364 82.2726 34.9247 -44.7583 -14.7603 -0.0000 0.0000 -66.6783 29.9469 63.0232 27.1772 -7.1250 0.0000 -0.0000 170.7832 6.4354 8.2355 0.0000 0.0000 0.0000 85.2206 15.2139 73.1290 -37.2053 46.3241 -16.3883 0.0000 -0.0000 -65.5290 -41.6009 -13.9063 12.0455 7.1250 -0.0000 -0.0000 -13.7953 -47.8099 0.9739
-8.8439 17.8654 5.7356 -39.0906 83.7688 -25.4927 0.0000 0.0000 0.0000 -7.1397 -4.4046 -27.0770 2.4162 9.6838 27.9589 0.3407 -6.9787 -10.7713 0.7179 -5.4146 -15.0948 0.0000 0.0000 0.0000 13.1553 9.1297 -27.7944 -2.4427 -9.7330 28.1164 -0.2598 0.0846 -9.5986 -0.0283 1.0869 -2.9879 0.5888 1.3645 5.5199 4.1121 1.9769 5.5724 3.8593 1.0149 2.5334 5.0053 2.4116 -10.8786 -3.8037 6.9367 43.9258 -1.2186 3.8525 18.8549 -0.0000 -0.0000 0.0000 -92.8627 -18.0983 82.5028 34.9019 -44.7420 -14.7443 -0.0000 0.0000 -66.6772 30.4260 62.9038 27.6026 -7.1250 0.0000 -0.0000 170.9514 6.4204 8.0839 -0.0000 -0.0000 0.0000 85.4156 15.1494 72.8133 -37.0524 46.2233 -16.2778 0.0000 -0.0000 -65.2855 -41.3831 -13.8777 11.9328 7.1250 -0.0000 -0.0000 -13.5703 -47.7328 0.9312
-8.8437 17.8669 5.7348 -38.7946 83.7247 -25.2136 0.0000 0.0000 0.0000 -7.1448 -4.3967 -27.0193 2.4123 9.6767 27.9360 0.3416 -6.9195 -10.7704 0.7180 -5.4149 -15.0959 0.0000 0.0000 0.0000 13.1749 9.1363 -27.7549 -2.4318 -9.7128 28.0515 -0.2539 -0.0108 -9.5216 -0.0592 1.5705 -4.3201 0.5119 1.3531 5.5093 4.1548 1.9590 5.5885 3.9488 1.0028 2.5537 4.8419 2.3249 -10.9367 -3.9542 6.9157 43.9398 -1.2640 3.7980 18.8799 0.0000 0.0000 0.0000 -92.9505 -18.1169 82.4402 34.8564 -44.7094 -14.7123 -0.0000 0.0000 -66.6907 30.7335 62.8761 27.8860 -7.1250 0.0000 -0.0000 171.0436 6.4569 7.9931 0.0000 0.0000 0.0000 85.4181 15.1816 72.8437 -36.9294 46.1417 -16.1891 0.0000 -0.0000 -65.1684 -41.3000 -13.8569 11.8819 7.1250 -0.0000 -0.0000 -13.4834 -47.6912 0.9110
-8.8428 17.8680 5.7329 -38.7950 83.6721 -25.2327 0.0000 0.0000 0.0000 -7.1143 -4.4049 -26.9528 2.4076 9.6680 27.9081 0.3414 -6.8689 -10.7569 0.6876 -5.3012 -14.7696 0.0000 0.0000 0.0000 13.2065 9.1990 -27.6931 -2.4242 -9.6987 28.0065 -0.2487 -0.0919 -9.4530 -0.0830 1.8587 -5.1153 0.5019 1.3482 5.5148 4.1606 1.9522 5.5868 3.9605 0.9990 2.5489 4.7481 2.2244 -10.9804 -4.0503 6.8246 43.9436 -1.3096 3.7337 18.8886 -0.0000 -0.0000 0.0000 -92.9402 -18.1213 82.4346 34.8425 -44.6993 -14.7025 -0.0000 0.0000 -66.7234 30.7449 62.9097 27.9039 -7.1250 0.0000 -0.0000 171.0359 6.4898 7.9943 -0.0000 -0.0000 0.0000 85.4718 15.1810 72.8841 -36.8818 46.1101 -16.1548 0.0000 -0.0000 -65.0847 -41.2804 -13.8807 11.8934 7.1250 -0.0000 -0.0000 -13.4665 -47.7174 0.9186
-8.8415 17.8701 5.7310 -38.4274 83.6450 -24.8416 0.0000 0.0000 0.0000 -7.1454 -4.3907 -26.9585 2.4023 9.6580 27.8762 0.3421 -6.8733 -10.7670 0.6713 -5.2392 -14.5922 0.0000 0.0000 0.0000 13.1615 9.2828 -27.6836 -2.4202 -9.6914 27.9830 -0.2472 -0.1354 -9.4419 -0.0631 1.6210 -4.4593 0.4587 1.3304 5.4854 4.1434 1.9254 5.5582 3.9679 0.9839 2.5363 4.6521 2.1287 -10.9818 -4.1482 6.7388 43.9205 -1.3557 3.6712 18.8684 0.0000 0.0000 0.0000 -92.9104 -18.1025 82.3461 34.7822 -44.6560 -14.6600 -0.0000 0.0000 -66.6641 29.9400 62.8038 27.1252 -7.1250 0.0000 -0.0000 170.8529 6.2325 8.2078 0.0000 0.0000 0.0000 85.5160 15.1703 72.9563 -36.8365 46.0798 -16.1222 0.0000 -0.0000 -65.0691 -41.2134 -13.8868 11.8711 7.1250 -0.0000 -0.0000 -13.3992 -47.7125 0.9123
-8.8408 17.8720 5.7294 -37.8637 83.6497 -24.2489 0.0000 0.0000 0.0000 -7.2246 -4.3689 -26.9863 2.3972 9.6485 27.8457 0.3428 -6.8675 -10.7751 0.6981 -5.3408 -14.8831 0.0000 0.0000 0.0000 13.0862 9.3106 -27.7061 -2.4177 -9.6867 27.9681 -0.2503 -0.1395 -9.5016 -0.0392 1.2781 -3.5144 0.3537 1.3046 5.4645 4.1525 1.8862 5.5300 4.0380 0.9603 2.5178 4.4919 2.0269 -10.9874 -4.2526 6.6673 43.9024 -1.3902 3.6032 18.8511 0.0000 -0.0000 0.0000 -92.9450 -18.0734 82.1981 34.7195 -44.6108 -14.6160 -0.0000 0.0000 -66.5843 29.3047 62.5835 26.4843 -7.1250 0.0000 -0.0000 170.7497 5.9061 8.3616 0.0000 -0.0000 0.0000 85.4336 15.1608 73.0431 -36.8303 46.0757 -16.1177 0.0000 -0.0000 -65.1723 -41.1107 -13.7842 11.7462 7.1250 -0.0000 -0.0000 -13.2832 -47.5649 0.8550
